<?xml version="1.0" encoding="UTF-8" standalone="no"?>
<!-- Created with Inkscape (http://www.inkscape.org/) -->

<svg
   width="50"
   height="50"
   viewBox="0 0 13.229166 13.229167"
   version="1.1"
   id="svg1"
   xml:space="preserve"
   inkscape:version="1.4.4 (dcaf3e7d9e, 2026-05-05)"
   sodipodi:docname="body.svg"
   xmlns:inkscape="http://www.inkscape.org/namespaces/inkscape"
   xmlns:sodipodi="http://sodipodi.sourceforge.net/DTD/sodipodi-0.dtd"
   xmlns:xlink="http://www.w3.org/1999/xlink"
   xmlns="http://www.w3.org/2000/svg"
   xmlns:svg="http://www.w3.org/2000/svg"><sodipodi:namedview
     id="namedview1"
     pagecolor="#505050"
     bordercolor="#ffffff"
     borderopacity="1"
     inkscape:showpageshadow="0"
     inkscape:pageopacity="0"
     inkscape:pagecheckerboard="1"
     inkscape:deskcolor="#505050"
     inkscape:document-units="mm"
     showguides="true"
     inkscape:zoom="7.7682379"
     inkscape:cx="31.474319"
     inkscape:cy="15.511883"
     inkscape:window-width="1036"
     inkscape:window-height="749"
     inkscape:window-x="0"
     inkscape:window-y="19"
     inkscape:window-maximized="1"
     inkscape:current-layer="g8"><sodipodi:guide
       position="0,6.6145832"
       orientation="0,1"
       id="guide5"
       inkscape:locked="false"
       inkscape:label=""
       inkscape:color="rgb(0,134,229)" /><sodipodi:guide
       position="6.6145832,0"
       orientation="-1,0"
       id="guide6"
       inkscape:locked="false"
       inkscape:label=""
       inkscape:color="rgb(0,134,229)" /></sodipodi:namedview><defs
     id="defs1" /><g
     inkscape:label="Layer 1"
     inkscape:groupmode="layer"
     id="layer1"><g
       id="g7"
       inkscape:label="body"
       style="display:none"><g
         id="g3"
         inkscape:label="logo"
         transform="matrix(0.12213926,-0.05497784,0.05497784,0.12213926,-11.200784,5.3527113)"
         style="fill:#f3d400;fill-opacity:1;stroke:none;stroke-width:0.592606;stroke-dasharray:none;stroke-opacity:1"><g
           id="g4"
           inkscape:label="bot"
           style="display:inline;fill:#f3d400;fill-opacity:1;stroke:none;stroke-width:0.592606;stroke-dasharray:none;stroke-opacity:1"><path
             style="fill:#ffe953;fill-opacity:1;stroke:none;stroke-width:0.592606;stroke-dasharray:none;stroke-opacity:1"
             d="m 117.87248,41.18869 11.73554,5.972844 c 4.83686,-0.280476 9.80054,-2.755432 15.63521,-8.648568 l -5.31646,12.220443 c -5.41818,6.064633 -12.76961,9.260574 -22.05429,9.587821"
             id="path3"
             sodipodi:nodetypes="ccccc" /><use
             x="0"
             y="0"
             xlink:href="#path3"
             id="use4"
             transform="matrix(-1,0,0,1,235.74496,0)"
             style="fill:#f3d400;fill-opacity:1;stroke:none;stroke-width:0.592606;stroke-dasharray:none;stroke-opacity:1" /></g><g
           id="g2"
           inkscape:label="top"
           style="fill:#f3d400;fill-opacity:1;stroke:none;stroke-width:0.592606;stroke-dasharray:none;stroke-opacity:1"
           transform="translate(-1.0164853,-1.246277)"><path
             style="fill:#f3d400;fill-opacity:1;stroke:none;stroke-width:0.592606;stroke-dasharray:none;stroke-opacity:1"
             d="m 117.77859,32 c 0,0 9.95317,-0.345203 17.6323,4.138983 1.71529,0.922917 3.30929,2.091586 4.63215,3.526469 3.85171,-2.781661 6.62309,-7.056513 7.56124,-11.716515 l -3.81468,1.362385 c -1.19546,-1.245407 -4.39117,-3.063327 -4.39117,-3.063327 l -2.87205,-5.003925 c 0,0 -2.7738,2.077449 -4.22701,3.141394 -3.29324,-1.00484 -6.72673,-1.579984 -10.16123,-1.188789 -1.36238,-1.226147 -4.36014,-3.6457 -4.36014,-3.6457"
             id="path2"
             sodipodi:nodetypes="cccccccccc" /><use
             x="0"
             y="0"
             xlink:href="#path2"
             id="use2"
             transform="matrix(-1,0,0,1,235.55642,0)"
             style="fill:#f3d400;fill-opacity:1;stroke:none;stroke-width:0.592606;stroke-dasharray:none;stroke-opacity:1" /></g></g><circle
         style="fill:#55007e;fill-opacity:1;stroke:none;stroke-width:0.105833;stroke-dasharray:none;stroke-opacity:1"
         id="path1"
         cx="6.6145835"
         cy="6.6145835"
         r="3.3391869" /></g><g
       id="g6"
       inkscape:label="eyes"
       style="display:none"
       transform="translate(0.32405762,-0.64556662)"><circle
         style="fill:#ffffff;fill-opacity:1;stroke-width:6.08848"
         id="path4"
         cx="4.8600211"
         cy="7.26015"
         r="1.1390219" /><use
         x="0"
         y="0"
         xlink:href="#path4"
         id="use5"
         transform="translate(2.8610092)"
         style="fill:#1b1b1b;fill-opacity:1" /></g><g
       id="g8"
       inkscape:label="eyes.dead"
       style="display:inline"
       transform="translate(0.32405762,-0.64556662)"><g
         id="use9"
         transform="matrix(0.47923474,0.30551293,-0.30551293,0.47923474,7.936584,1.9421383)"
         style="display:inline"><path
           sodipodi:type="spiral"
           style="display:inline;fill:none;fill-rule:evenodd;stroke:#ffffff;stroke-width:1.065;stroke-linecap:round;stroke-linejoin:round;stroke-dasharray:none;stroke-opacity:1"
           id="path10"
           sodipodi:cx="30.406631"
           sodipodi:cy="25"
           sodipodi:expansion="2"
           sodipodi:revolution="4"
           sodipodi:radius="4.3049645"
           sodipodi:argument="-18.849556"
           sodipodi:t0="0.5"
           d="m 31.482873,25 c 0.107083,0.672822 -0.42572,1.270088 -1.076241,1.362118 C 29.567471,26.480835 28.828646,25.813998 28.725005,25 28.59465,23.976195 29.410832,23.080495 30.406631,22.965232 31.633389,22.823235 32.701282,23.804074 32.828174,25 c 0.15364,1.448023 -1.007166,2.703423 -2.421542,2.841949 C 28.719029,28.007236 27.260808,26.651151 27.110643,25 26.933708,23.054503 28.500383,21.378147 30.406631,21.21634 32.62834,21.027755 34.538143,22.820332 34.711596,25"
           transform="matrix(0.39255703,-0.25025575,0.25025575,0.39255703,-13.48251,5.8896179)" /></g><use
         x="0"
         y="0"
         xlink:href="#use9"
         id="use10"
         transform="matrix(-1,0,0,1,12.684073,0.088471)"
         style="display:inline" /></g></g></svg>
