<?xml version="1.0" encoding="UTF-8" standalone="no"?>
<!-- Created with Inkscape (http://www.inkscape.org/) -->

<svg
   width="110"
   height="130"
   viewBox="0 0 29.104179 34.395848"
   version="1.1"
   id="svg1"
   inkscape:version="1.3.2 (091e20e, 2023-11-25)"
   sodipodi:docname="jolt-header.svg"
   xml:space="preserve"
   xmlns:inkscape="http://www.inkscape.org/namespaces/inkscape"
   xmlns:sodipodi="http://sodipodi.sourceforge.net/DTD/sodipodi-0.dtd"
   xmlns="http://www.w3.org/2000/svg"
   xmlns:svg="http://www.w3.org/2000/svg"><sodipodi:namedview
     id="namedview1"
     pagecolor="#ffffff"
     bordercolor="#000000"
     borderopacity="0.25"
     inkscape:showpageshadow="2"
     inkscape:pageopacity="0.0"
     inkscape:pagecheckerboard="0"
     inkscape:deskcolor="#d1d1d1"
     inkscape:document-units="px"
     inkscape:zoom="4.1077997"
     inkscape:cx="39.315451"
     inkscape:cy="84.838606"
     inkscape:window-width="1800"
     inkscape:window-height="1102"
     inkscape:window-x="833"
     inkscape:window-y="1479"
     inkscape:window-maximized="0"
     inkscape:current-layer="layer1" /><defs
     id="defs1" /><g
     inkscape:label="Layer 1"
     inkscape:groupmode="layer"
     id="layer1"><path
       id="rect1"
       style="fill:#ffffff;fill-opacity:1;stroke-width:1.46413;stroke-linecap:square;stroke-miterlimit:0"
       d="m 3.486498,2.83634 15.285051,-1e-5 7.01138,6.50699 V 31.55685 H 3.486498 Z"
       sodipodi:nodetypes="cccccc" /><path
       d="M 27.600009,10.35579 A 0.94720833,0.94720833 0 0 0 26.904149,9.44298 L 18.540679,1.29381 A 0.93397917,0.93397917 0 0 0 17.810429,0.94456 H 3.205431 A 1.698625,1.698625 0 0 0 1.50416,2.64583 V 31.75 a 1.698625,1.698625 0 0 0 1.701271,1.70127 H 25.901379 A 1.698625,1.698625 0 0 0 27.594709,31.75 q 0,-10.7024 0,-21.3995 z m -8.84502,-6.08542 5.68324,5.32342 h -5.68324 z M 3.403868,31.55685 V 2.83633 h 13.446121 v 7.70202 a 0.95514583,0.95514583 0 0 0 0.95515,0.95515 h 7.89516 q 0,10.033 0,20.06335 z"
       id="path1"
       style="fill:#000000;fill-opacity:1;stroke:none;stroke-width:0.264583;stroke-opacity:1" /><g
       id="g1"
       transform="matrix(0.79410491,0,0,0.79410491,0.68502575,5.6049816)"><path
         fill="#00599c"
         d="m 23.151771,27.937149 c 0.09161,-0.158689 0.148539,-0.337486 0.148539,-0.498044 v -5.573346 c 0,-0.160558 -0.05685,-0.339317 -0.148501,-0.498006 l -5.6893,3.284698 z"
         id="path1-0"
         style="stroke-width:0.0381555" /><path
         fill="#004482"
         d="m 17.96807,31.101428 4.826679,-2.786653 c 0.139039,-0.08028 0.26541,-0.218899 0.357022,-0.377626 l -5.689262,-3.284698 -5.689262,3.284736 c 0.09161,0.158689 0.218021,0.297347 0.357021,0.377588 l 4.826679,2.786653 c 0.27804,0.160559 0.733083,0.160559 1.011123,0 z"
         id="path2"
         style="stroke-width:0.0381555" /><path
         fill="#659ad2"
         d="m 23.151809,21.367715 c -0.09165,-0.158727 -0.218059,-0.297346 -0.35706,-0.377626 L 17.96807,18.203436 c -0.27804,-0.160559 -0.733083,-0.160559 -1.011123,0 l -4.826679,2.786653 c -0.278077,0.160521 -0.505561,0.554591 -0.505561,0.87567 v 5.573346 c 0,0.160558 0.05689,0.339355 0.14854,0.498044 l 5.689262,-3.284698 z"
         id="path3"
         style="stroke-width:0.0381555" /><g
         id="g4"
         transform="matrix(0.03815556,0,0,0.03815556,11.624707,18.083017)">
	<path
   fill="#ffffff"
   d="m 153,274.175 c -56.243,0 -102,-45.757 -102,-102 0,-56.243 45.757,-102 102,-102 36.292,0 70.139,19.53 88.331,50.968 l -44.143,25.544 C 188.083,130.951 171.15,121.175 153,121.175 c -28.122,0 -51,22.878 -51,51 0,28.121 22.878,51 51,51 18.152,0 35.085,-9.776 44.191,-25.515 l 44.143,25.543 c -18.192,31.441 -52.04,50.972 -88.334,50.972 z"
   id="path4" />
</g><g
         id="g5"
         transform="matrix(0.03815556,0,0,0.03815556,11.624707,18.083017)">
	<polygon
   fill="#ffffff"
   points="232.334,155.175 232.334,166.508 221,166.508 221,177.841 232.334,177.841 232.334,189.175 243.666,189.175 243.666,177.841 255,177.841 255,166.508 243.666,166.508 243.666,155.175 "
   id="polygon4" />
</g><g
         id="g6"
         transform="matrix(0.03815556,0,0,0.03815556,11.624707,18.083017)">
	<polygon
   fill="#ffffff"
   points="274.834,155.175 274.834,166.508 263.5,166.508 263.5,177.841 274.834,177.841 274.834,189.175 286.166,189.175 286.166,177.841 297.5,177.841 297.5,166.508 286.166,166.508 286.166,155.175 "
   id="polygon5" />
</g></g><path
       style="font-size:7.05557px;line-height:1;font-family:mono;-inkscape-font-specification:mono;text-align:center;text-anchor:middle;stroke-width:1.32292;stroke-linecap:square;stroke-miterlimit:0"
       d="m 9.145001,16.646868 q 0,0.66835 -0.3514005,1.026641 -0.3479553,0.35829 -1.0231954,0.35829 -0.5891126,0 -1.0714269,-0.248047 l 0.16881,-0.451309 q 0.4099672,0.203261 0.9026169,0.203261 0.4271927,0 0.6166733,-0.223931 0.1929258,-0.227377 0.1929258,-0.706246 V 13.077742 H 9.145001 Z m 3.365865,-2.384011 q 0.740697,0 1.178225,0.516765 0.437528,0.516766 0.437528,1.360816 0,0.85094 -0.437528,1.371151 -0.437528,0.52021 -1.178225,0.52021 -0.744142,0 -1.18167,-0.516765 -0.434083,-0.520211 -0.434083,-1.374596 0,-0.847495 0.437528,-1.360816 0.437528,-0.516765 1.178225,-0.516765 z m 0,3.300408 q 0.489205,0 0.771703,-0.413412 0.282499,-0.413412 0.282499,-1.002525 0,-0.620118 -0.279054,-1.01975 -0.279053,-0.399632 -0.775148,-0.399632 -0.49954,0 -0.775148,0.396187 -0.275608,0.392741 -0.275608,1.023195 0,0.599448 0.279053,1.009415 0.279054,0.406522 0.771703,0.406522 z m 5.364025,0.375516 H 16.407277 V 13.54283 H 15.47021 v -0.465088 h 1.474503 v 4.395951 h 0.930178 z m 4.53031,-0.161919 q -0.540881,0.248047 -1.064537,0.248047 -0.961184,0 -0.961184,-1.016305 v -2.194531 h -0.68902 v -0.465088 h 0.68902 V 13.36713 h 0.523656 v 0.981855 h 1.219566 v 0.465088 h -1.219566 v 2.053282 q 0,0.327284 0.144694,0.509875 0.144695,0.179145 0.392742,0.179145 0.440973,0 0.871611,-0.196371 z"
       id="text1"
       aria-label="Jolt" /></g></svg>
