<?xml version="1.0" encoding="UTF-8" standalone="no"?>
<!-- Created with Inkscape (http://www.inkscape.org/) -->

<svg
   width="110"
   height="130"
   viewBox="0 0 29.104171 34.395838"
   version="1.1"
   id="svg1"
   inkscape:version="1.3.2 (091e20e, 2023-11-25)"
   sodipodi:docname="nim-file-bind.svg"
   xmlns:inkscape="http://www.inkscape.org/namespaces/inkscape"
   xmlns:sodipodi="http://sodipodi.sourceforge.net/DTD/sodipodi-0.dtd"
   xmlns="http://www.w3.org/2000/svg"
   xmlns:svg="http://www.w3.org/2000/svg">
  <sodipodi:namedview
     id="namedview1"
     pagecolor="#ffffff"
     bordercolor="#000000"
     borderopacity="0.25"
     inkscape:showpageshadow="2"
     inkscape:pageopacity="0.0"
     inkscape:pagecheckerboard="0"
     inkscape:deskcolor="#d1d1d1"
     inkscape:document-units="px"
     inkscape:zoom="2.749646"
     inkscape:cx="75.646101"
     inkscape:cy="79.101092"
     inkscape:window-width="1800"
     inkscape:window-height="1102"
     inkscape:window-x="833"
     inkscape:window-y="1479"
     inkscape:window-maximized="0"
     inkscape:current-layer="layer1" />
  <defs
     id="defs1">
    <rect
       x="28.833488"
       y="105.72279"
       width="84.270494"
       height="26.875952"
       id="rect1" />
  </defs>
  <g
     inkscape:label="Layer 1"
     inkscape:groupmode="layer"
     id="layer1">
    <g
       id="g1"
       transform="translate(-90.570851,-131.34711)">
      <path
         id="rect1-1"
         style="fill:#ffffff;fill-opacity:1;stroke-width:1.46413;stroke-linecap:square;stroke-miterlimit:0"
         d="m 93.97472,134.18345 15.28505,-1e-5 7.01139,6.50699 v 22.21353 H 93.97472 Z"
         sodipodi:nodetypes="cccccc" />
      <path
         d="m 118.17087,141.7029 a 0.94720833,0.94720833 0 0 0 -0.69586,-0.91281 l -8.36348,-8.14917 a 0.93397917,0.93397917 0 0 0 -0.73025,-0.34925 H 93.77627 a 1.698625,1.698625 0 0 0 -1.70127,1.70127 v 29.10417 a 1.698625,1.698625 0 0 0 1.70127,1.70127 h 22.69597 a 1.698625,1.698625 0 0 0 1.69333,-1.70127 q 0,-10.7024 0,-21.3995 z m -8.84503,-6.08542 5.68325,5.32342 h -5.68325 z m -15.35113,27.28648 v -28.72052 h 13.44613 v 7.70202 a 0.95514583,0.95514583 0 0 0 0.95515,0.95515 h 7.89517 q 0,10.033 0,20.06335 z"
         id="path1-7"
         style="fill:#000000;fill-opacity:1;stroke:none;stroke-width:0.264583;stroke-opacity:1" />
      <g
         id="g7"
         transform="matrix(0.28222222,0,0,0.28222222,96.65655,140.60752)">
        <path
           d="m 30.238,9.438 -4.643,3.62 c -2.41,-0.077 -7.14,0.463 -9.702,1.395 -2.36,-1.495 -4.435,-3.146 -4.435,-3.146 L 8.57,16.146 c -1.653,0.88 -3.313,1.868 -4.792,3.176 l -3.78,-1.544 c 2.278,4.595 3.8,9.197 7.976,11.962 6.633,-10.476 37.456,-9.5 44.226,-0.06 4.377,-2.28 6.08,-7.18 7.8,-11.723 -0.19,0.062 -2.53,0.846 -4.048,1.425 -0.906,-0.987 -3.042,-2.503 -4.256,-3.236 -1.15,-2.11 -2.827,-4.957 -2.827,-4.957 0,0 -1.985,1.476 -4.286,3.087 -3.108,-0.574 -6.868,-1.27 -10.03,-1.098 -2.152,-1.77 -4.315,-3.74 -4.315,-3.74 z"
           fill="#f3d400"
           id="path1-1" />
        <path
           d="m 2.355,27.545 5.472,13.252 c 9.503,12.537 33.77,13.41 44.35,0.243 l 5.88,-13.57 c -2.714,4.02 -7.13,6.796 -9.85,8.29 -1.933,1.06 -6.393,1.7 -6.393,1.7 l -11.7,-6.068 -11.777,5.947 c 0,0 -4.4,-0.707 -6.393,-1.638 -4.02,-2.147 -6.726,-4.683 -9.577,-8.155 z"
           fill="#ffe953"
           id="path2" />
      </g>
    </g>
    <path
       style="font-size:26.6667px;line-height:1;font-family:mono;-inkscape-font-specification:mono;text-align:center;white-space:pre;stroke-width:3.99874;stroke-linecap:square;stroke-miterlimit:0"
       d="m 43.794236,114.77633 q 0.677085,-0.9375 1.822919,-1.51042 1.158856,-0.57292 2.434899,-0.57292 2.369795,0 3.684901,1.90105 1.328127,1.90104 1.328127,5 0,3.13803 -1.406252,5.24741 -1.406252,2.09635 -3.763026,2.09635 -1.263022,0 -2.369794,-0.625 -1.093752,-0.63802 -1.731774,-1.67969 v 1.95313 h -2.031252 v -18.37242 h 2.031252 z m 0,2.01823 v 5.63803 q 0.572918,1.14583 1.549482,1.91406 0.976563,0.76823 2.018231,0.76823 1.640627,0 2.60417,-1.5625 0.976564,-1.5625 0.976564,-3.84115 0,-2.34375 -0.92448,-3.80209 -0.924481,-1.45833 -2.578129,-1.45833 -2.14844,0 -3.645838,2.34375 z m 20.052109,-8.90626 q 0.572918,0 0.976564,0.41667 0.403646,0.40364 0.403646,0.97656 0,0.59896 -0.403646,1.00261 -0.390625,0.40364 -0.976564,0.40364 -0.533855,0 -0.950522,-0.41666 -0.403646,-0.42969 -0.403646,-0.98959 0,-0.5599 0.403646,-0.97656 0.416667,-0.41667 0.950522,-0.41667 z m 0.989585,18.69794 h -2.031253 v -11.80991 h -3.997401 v -1.75782 h 6.028654 z m 19.388045,0 h -2.031252 v -8.69793 q 0,-1.8099 -0.585938,-2.61719 -0.572918,-0.82031 -1.809899,-0.82031 -1.861981,0 -3.9974,2.31771 v 9.81772 h -2.031253 v -13.56773 h 2.031253 v 1.9922 q 2.187502,-2.31772 4.60938,-2.31772 3.815109,0 3.815109,4.60938 z m 15.950545,0 h -2.031256 v -1.95313 q -0.625001,1.00261 -1.796877,1.65365 -1.158856,0.65104 -2.44792,0.65104 -2.330732,0 -3.684901,-2.07031 -1.354168,-2.08334 -1.354168,-5.27345 0,-2.98177 1.406252,-4.9349 1.419272,-1.96615 3.750004,-1.96615 2.565108,0 4.12761,2.08334 v -6.56251 h 2.031256 z m -2.031256,-4.15365 v -5.63803 q -1.458335,-2.34375 -3.51563,-2.34375 -1.679689,0 -2.656253,1.4974 -0.976564,1.48437 -0.976564,3.76302 0,2.34375 0.91146,3.88022 0.92448,1.52343 2.526045,1.52343 0.76823,0 1.549481,-0.41666 0.781251,-0.41667 1.471356,-1.25 0.690105,-0.83334 0.690105,-1.01563 z"
       id="text1"
       transform="matrix(0.26458337,0,0,0.26458337,-4.2251238,-3.526572)"
       aria-label="bind" />
  </g>
</svg>
