<?xml version="1.0" encoding="UTF-8" standalone="no"?>
<!-- Created with Inkscape (http://www.inkscape.org/) -->

<svg
   width="110"
   height="130"
   viewBox="0 0 29.104179 34.395848"
   version="1.1"
   id="svg1"
   inkscape:version="1.3.2 (091e20e, 2023-11-25)"
   sodipodi:docname="wgpu-header.svg"
   xmlns:inkscape="http://www.inkscape.org/namespaces/inkscape"
   xmlns:sodipodi="http://sodipodi.sourceforge.net/DTD/sodipodi-0.dtd"
   xmlns="http://www.w3.org/2000/svg"
   xmlns:svg="http://www.w3.org/2000/svg">
  <sodipodi:namedview
     id="namedview1"
     pagecolor="#ffffff"
     bordercolor="#000000"
     borderopacity="0.25"
     inkscape:showpageshadow="2"
     inkscape:pageopacity="0.0"
     inkscape:pagecheckerboard="0"
     inkscape:deskcolor="#d1d1d1"
     inkscape:document-units="px"
     inkscape:zoom="2.9251515"
     inkscape:cx="42.561898"
     inkscape:cy="75.722574"
     inkscape:window-width="1800"
     inkscape:window-height="1102"
     inkscape:window-x="833"
     inkscape:window-y="1479"
     inkscape:window-maximized="0"
     inkscape:current-layer="layer1" />
  <defs
     id="defs1" />
  <g
     inkscape:label="Layer 1"
     inkscape:groupmode="layer"
     id="layer1">
    <g
       id="g1"
       transform="translate(-90.570841,-131.34711)">
      <path
         id="rect1"
         style="fill:#ffffff;fill-opacity:1;stroke-width:1.46413;stroke-linecap:square;stroke-miterlimit:0"
         d="m 94.057339,134.18345 15.285051,-1e-5 7.01138,6.50699 v 22.21353 H 94.057339 Z"
         sodipodi:nodetypes="cccccc" />
      <path
         d="m 118.17085,141.7029 a 0.94720833,0.94720833 0 0 0 -0.69586,-0.91281 l -8.36347,-8.14917 a 0.93397917,0.93397917 0 0 0 -0.73025,-0.34925 H 93.776272 a 1.698625,1.698625 0 0 0 -1.701271,1.70127 v 29.10417 a 1.698625,1.698625 0 0 0 1.701271,1.70127 h 22.695948 a 1.698625,1.698625 0 0 0 1.69333,-1.70127 q 0,-10.7024 0,-21.3995 z m -8.84502,-6.08542 5.68324,5.32342 h -5.68324 z m -15.351121,27.28648 v -28.72052 h 13.446121 v 7.70202 a 0.95514583,0.95514583 0 0 0 0.95515,0.95515 h 7.89516 q 0,10.033 0,20.06335 z"
         id="path1"
         style="fill:#000000;fill-opacity:1;stroke:none;stroke-width:0.264583;stroke-opacity:1" />
      <g
         id="g3"
         transform="translate(-1.535585,0.67425667)">
        <g
           id="g2"
           transform="matrix(0.02692035,0,0,0.02692035,96.433627,141.89127)">
          <path
             id="Triangle_4"
             data-name="Triangle 4"
             class="cls-4"
             d="M 626.63,295.5 566.441,191.25 h 120.55 z"
             style="fill:#0086e8;fill-rule:evenodd;stroke:#0086e8;stroke-linejoin:round" />
          <path
             id="Triangle_5"
             data-name="Triangle 5"
             class="cls-5"
             d="m 626.63,87.001 -60.189,104.25 h 120.55 z"
             style="fill:#0093ff;fill-rule:evenodd;stroke:#0093ff;stroke-linejoin:round" />
          <path
             id="Triangle_3"
             data-name="Triangle 3"
             class="cls-3"
             d="M 506.26,504 385.88,295.5 626.64,295.498 Z"
             style="fill:#0076cc;fill-rule:evenodd;stroke:#0076cc;stroke-linejoin:round" />
          <path
             id="Triangle_2"
             data-name="Triangle 2"
             class="cls-2"
             d="M 506.26,87 385.88,295.5 626.64,295.498 Z"
             style="fill:#0066b0;fill-rule:evenodd;stroke:#0066b0;stroke-linejoin:round" />
          <path
             id="Triangle_1"
             data-name="Triangle 1"
             class="cls-1"
             d="M 265.5,504 24.74,87 h 481.51 z"
             style="fill:#005a9c;fill-rule:evenodd;stroke:#005a9c;stroke-linejoin:round" />
          <path
             id="WebGPU"
             class="cls-6"
             d="m 168.627,547.469 -25.7,98.943 -26.877,-98.943 H 98.913 L 70.692,646.748 45.158,547.469 H 28.864 l 32.757,117.253 16.966,-0.168 28.221,-94.239 27.214,94.239 h 17.134 L 185.089,547.469 Z M 285.879,615 A 46.371,46.371 0 0 0 280.42,592.406 39.572,39.572 0 0 0 264.881,576.7 46.213,46.213 0 0 0 241.7,570.989 a 47.756,47.756 0 0 0 -23.77,5.8 40.093,40.093 0 0 0 -16.043,16.547 q -5.712,10.752 -5.711,25.029 0.001,14.277 5.879,25.114 a 41.6,41.6 0 0 0 16.211,16.714 46.506,46.506 0 0 0 23.434,5.88 q 16.461,0 27.549,-8.315 a 39.581,39.581 0 0 0 14.783,-21.586 h -16.463 a 24.459,24.459 0 0 1 -9.323,12.347 q -6.637,4.621 -16.546,4.619 a 29.643,29.643 0 0 1 -20.579,-7.643 q -8.484,-7.643 -9.323,-21.25 h 73.578 a 90.2,90.2 0 0 0 0.5,-9.239 v 0 z m -15.79,-3.192 h -58.123 q 1.174,-13.1 9.323,-20.494 a 28.334,28.334 0 0 1 19.739,-7.391 32.747,32.747 0 0 1 14.7,3.275 25.141,25.141 0 0 1 10.5,9.575 28.211,28.211 0 0 1 3.864,15.035 v 0 z m 51.234,-22.174 v -49.388 h -15.286 v 124.308 h 15.286 v -16.966 a 35.4,35.4 0 0 0 13.523,13.27 40.944,40.944 0 0 0 20.914,5.208 41.878,41.878 0 0 0 37.965,-23.014 52.85,52.85 0 0 0 5.711,-24.862 q 0,-14.111 -5.711,-24.777 a 41.656,41.656 0 0 0 -15.625,-16.547 42.963,42.963 0 0 0 -22.342,-5.879 40.769,40.769 0 0 0 -20.662,5.207 36.153,36.153 0 0 0 -13.775,13.439 v 0 z m 62.491,28.557 a 38.312,38.312 0 0 1 -4.2,18.395 29.538,29.538 0 0 1 -11.339,11.927 30.881,30.881 0 0 1 -15.707,4.115 30.554,30.554 0 0 1 -15.538,-4.115 30.081,30.081 0 0 1 -11.423,-11.927 40.557,40.557 0 0 1 0,-36.285 30.1,30.1 0 0 1 11.423,-11.927 30.574,30.574 0 0 1 15.538,-4.115 31.392,31.392 0 0 1 15.707,4.031 29.1,29.1 0 0 1 11.339,11.759 37.449,37.449 0 0 1 4.2,18.142 z M 526.6,581.4 a 52.873,52.873 0 0 0 -20.914,-26.038 q -14.363,-9.236 -33.008,-9.239 a 59.1,59.1 0 0 0 -29.734,7.643 55.966,55.966 0 0 0 -21.25,21.334 64.565,64.565 0 0 0 0,61.567 56.107,56.107 0 0 0 21.25,21.25 59.068,59.068 0 0 0 29.734,7.643 56.956,56.956 0 0 0 28.053,-6.971 56.039,56.039 0 0 0 20.326,-18.983 58.146,58.146 0 0 0 9.071,-26.457 v -11.757 h -62.995 v 12.431 h 46.7 q -1.851,17.477 -12.933,27.717 -11.082,10.24 -28.221,10.247 a 43.637,43.637 0 0 1 -22.091,-5.627 39.867,39.867 0 0 1 -15.454,-16.043 q -5.629,-10.413 -5.627,-24.189 0.002,-13.776 5.627,-24.274 a 39.775,39.775 0 0 1 15.454,-16.127 43.657,43.657 0 0 1 22.091,-5.627 40.519,40.519 0 0 1 21.5,5.627 36.439,36.439 0 0 1 14.11,15.873 z m 101.967,0.336 q 0,-15.119 -10.331,-24.694 -10.331,-9.575 -30.153,-9.575 h -37.8 v 117.087 h 15.287 v -48.883 h 22.51 q 20.493,0 30.489,-9.659 9.996,-9.659 10,-24.274 v 0 z m -40.484,21.334 h -22.51 v -43 h 22.51 q 24.858,0 24.861,21.67 0,10.248 -6.047,15.79 -6.047,5.542 -18.814,5.544 v 0 z m 59.129,-55.6 v 73.913 q 0,14.615 5.8,24.61 a 36.383,36.383 0 0 0 15.79,14.866 54.05,54.05 0 0 0 44.852,0 36.913,36.913 0 0 0 15.875,-14.866 Q 735.4,636 735.4,621.382 v -73.913 h -15.283 v 74.081 q 0,15.623 -7.644,23.182 -7.644,7.559 -21.082,7.559 -13.606,0 -21.25,-7.559 -7.644,-7.559 -7.641,-23.182 v -74.081 h -15.289 z"
             style="fill-rule:evenodd" />
        </g>
      </g>
    </g>
  </g>
</svg>
